<?xml version="1.0" encoding="UTF-8"?>
<svg version="1.1" xmlns="http://www.w3.org/2000/svg" width="138" height="56">
<path d="M0 0 C5 0 10 0 15 0 C15.72316406 -0.02320313 16.44632813 -0.04640625 17.19140625 -0.0703125 C17.97386719 -0.08835937 18.75632812 -0.10640625 19.5625 -0.125 C20.74005859 -0.15980469 20.74005859 -0.15980469 21.94140625 -0.1953125 C24 0 24 0 26 2 C26 2.99 26 3.98 26 5 C26.9590625 5.2165625 26.9590625 5.2165625 27.9375 5.4375 C30 6 30 6 31 7 C31.12537741 9.14307896 31.17574364 11.29078886 31.1875 13.4375 C31.20167969 14.61183594 31.21585938 15.78617188 31.23046875 16.99609375 C31 20 31 20 29 22 C28.01 22 27.02 22 26 22 C25.34 23.32 24.68 24.64 24 26 C23.34 26 22.68 26 22 26 C22 27.32 22 28.64 22 30 C20.02 30.33 18.04 30.66 16 31 C15.67 32.32 15.34 33.64 15 35 C13.35 34.67 11.7 34.34 10 34 C10 33.01 10 32.02 10 31 C8.35 30.67 6.7 30.34 5 30 C5 28.68 5 27.36 5 26 C3.35 25.67 1.7 25.34 0 25 C-0.33 24.01 -0.66 23.02 -1 22 C-2.65 21.67 -4.3 21.34 -6 21 C-6 16.05 -6 11.1 -6 6 C-4.35 5.67 -2.7 5.34 -1 5 C-0.67 3.35 -0.34 1.7 0 0 Z " fill="#040100" transform="translate(96,10)"/>
<path d="M0 0 C7.66666667 0 15.33333333 0 23 0 C23.33 1.65 23.66 3.3 24 5 C24.804375 4.979375 25.60875 4.95875 26.4375 4.9375 C29 5 29 5 30 6 C30.09975032 8.51136104 30.13882183 10.98903415 30.125 13.5 C30.13080078 14.55380859 30.13080078 14.55380859 30.13671875 15.62890625 C30.12661378 20.87338622 30.12661378 20.87338622 29 22 C27.33382885 22.04063832 25.66611905 22.042721 24 22 C23.67 23.32 23.34 24.64 23 26 C22.34 26 21.68 26 21 26 C21 27.32 21 28.64 21 30 C19.824375 30.12375 19.824375 30.12375 18.625 30.25 C15.85250896 30.72806339 15.85250896 30.72806339 14.6875 33.0625 C14.460625 33.701875 14.23375 34.34125 14 35 C12.68 35 11.36 35 10 35 C10 33.68 10 32.36 10 31 C9.21625 31.04125 8.4325 31.0825 7.625 31.125 C5 31 5 31 3 29 C3 28.01 3 27.02 3 26 C1.68 25.67 0.36 25.34 -1 25 C-1 24.01 -1 23.02 -1 22 C-1.804375 22.020625 -2.60875 22.04125 -3.4375 22.0625 C-6 22 -6 22 -7 21 C-7.07313567 18.46950598 -7.09247527 15.96695163 -7.0625 13.4375 C-7.05798828 12.72658203 -7.05347656 12.01566406 -7.04882812 11.28320312 C-7.03700864 9.52209987 -7.01907263 7.76103964 -7 6 C-5.02 5.67 -3.04 5.34 -1 5 C-0.67 3.35 -0.34 1.7 0 0 Z " fill="#040000" transform="translate(20,10)"/>
<path d="M0 0 C7.92 0 15.84 0 24 0 C24.33 1.65 24.66 3.3 25 5 C26.32 5 27.64 5 29 5 C30.50156874 8.00313748 30.09281204 10.79067522 30.0625 14.125 C30.05347656 15.40632813 30.04445312 16.68765625 30.03515625 18.0078125 C30.02355469 18.99523437 30.01195312 19.98265625 30 21 C28.35 21.33 26.7 21.66 25 22 C25 22.99 25 23.98 25 25 C23.68 25.33 22.36 25.66 21 26 C20.67 27.65 20.34 29.3 20 31 C18.68 31 17.36 31 16 31 C15.67 32.32 15.34 33.64 15 35 C13.35 34.67 11.7 34.34 10 34 C9.505 32.515 9.505 32.515 9 31 C6.98491642 30.26676204 6.98491642 30.26676204 5 30 C4.67 28.68 4.34 27.36 4 26 C2.35 25.67 0.7 25.34 -1 25 C-1 24.01 -1 23.02 -1 22 C-2.65 21.67 -4.3 21.34 -6 21 C-6.02692484 18.70839681 -6.04636124 16.41670454 -6.0625 14.125 C-6.07410156 12.84882813 -6.08570313 11.57265625 -6.09765625 10.2578125 C-6 7 -6 7 -5 5 C-3.68 5 -2.36 5 -1 5 C-0.67 3.35 -0.34 1.7 0 0 Z " fill="#0B0202" transform="translate(58,10)"/>
<path d="M0 0 C2.97 0 5.94 0 9 0 C9 4.95 9 9.9 9 15 C7.68 15 6.36 15 5 15 C5 15.99 5 16.98 5 18 C3.35 18 1.7 18 0 18 C0 19.98 0 21.96 0 24 C-1.32 24 -2.64 24 -4 24 C-4 22.02 -4 20.04 -4 18 C-5.65 18 -7.3 18 -9 18 C-9 17.01 -9 16.02 -9 15 C-10.65 15 -12.3 15 -14 15 C-14 10.38 -14 5.76 -14 1 C-10.7 1 -7.4 1 -4 1 C-4 1.99 -4 2.98 -4 4 C-2.68 4 -1.36 4 0 4 C0 2.68 0 1.36 0 0 Z " fill="#D0332F" transform="translate(34,16)"/>
<path d="M0 0 C3.63 0 7.26 0 11 0 C11 1.32 11 2.64 11 4 C11.99 4 12.98 4 14 4 C14 3.01 14 2.02 14 1 C16.97 1 19.94 1 23 1 C23 5.62 23 10.24 23 15 C21.68 15 20.36 15 19 15 C19 15.99 19 16.98 19 18 C17.35 18 15.7 18 14 18 C14 19.65 14 21.3 14 23 C13.01 23 12.02 23 11 23 C11 21.35 11 19.7 11 18 C9.02 18 7.04 18 5 18 C5 17.01 5 16.02 5 15 C3.35 15 1.7 15 0 15 C0 10.05 0 5.1 0 0 Z " fill="#DE3732" transform="translate(97,16)"/>
<path d="M0 0 C3.3 0 6.6 0 10 0 C10 0.99 10 1.98 10 3 C11.32 3 12.64 3 14 3 C14 2.01 14 1.02 14 0 C16.64 0 19.28 0 22 0 C22 4.62 22 9.24 22 14 C21.01 14 20.02 14 19 14 C19 14.99 19 15.98 19 17 C17.02 17 15.04 17 13 17 C13 18.65 13 20.3 13 22 C12.01 22 11.02 22 10 22 C10 20.35 10 18.7 10 17 C8.35 17 6.7 17 5 17 C5 15.68 5 14.36 5 13 C3.35 13 1.7 13 0 13 C0 8.71 0 4.42 0 0 Z " fill="#DF3632" transform="translate(59,17)"/>
<path d="M0 0 C3.63 0 7.26 0 11 0 C10.67 1.32 10.34 2.64 10 4 C10 3.01 10 2.02 10 1 C7.36 1 4.72 1 2 1 C3.65 1.33 5.3 1.66 7 2 C7 4.97 7 7.94 7 11 C7.99 11 8.98 11 10 11 C10 12.32 10 13.64 10 15 C12.97 15 15.94 15 19 15 C19 15.99 19 16.98 19 18 C17.35 18 15.7 18 14 18 C14 19.65 14 21.3 14 23 C13.01 23 12.02 23 11 23 C11 21.35 11 19.7 11 18 C9.02 18 7.04 18 5 18 C5 17.01 5 16.02 5 15 C3.35 15 1.7 15 0 15 C0 10.05 0 5.1 0 0 Z " fill="#B72323" transform="translate(97,16)"/>
<path d="M0 0 C0.66 0 1.32 0 2 0 C2 0.99 2 1.98 2 3 C2.99 3 3.98 3 5 3 C5 4.32 5 5.64 5 7 C5.66 7 6.32 7 7 7 C7 7.99 7 8.98 7 10 C7.99 10 8.98 10 10 10 C10 11.32 10 12.64 10 14 C12.97 14 15.94 14 19 14 C19 14.99 19 15.98 19 17 C17.35 17 15.7 17 14 17 C14 18.98 14 20.96 14 23 C12.68 23 11.36 23 10 23 C10 21.02 10 19.04 10 17 C8.35 17 6.7 17 5 17 C5 16.01 5 15.02 5 14 C3.35 14 1.7 14 0 14 C0 9.38 0 4.76 0 0 Z " fill="#BC2525" transform="translate(20,17)"/>
<path d="M0 0 C2.97 0.495 2.97 0.495 6 1 C6.33 3.97 6.66 6.94 7 10 C7.99 10 8.98 10 10 10 C10 11.32 10 12.64 10 14 C12.97 14 15.94 14 19 14 C19 14.99 19 15.98 19 17 C17.02 17 15.04 17 13 17 C13 18.65 13 20.3 13 22 C12.01 22 11.02 22 10 22 C10 20.35 10 18.7 10 17 C8.35 17 6.7 17 5 17 C5 15.68 5 14.36 5 13 C3.35 13 1.7 13 0 13 C0 8.71 0 4.42 0 0 Z " fill="#C32525" transform="translate(59,17)"/>
<path d="M0 0 C2.64 0 5.28 0 8 0 C8 4.29 8 8.58 8 13 C7.01 13 6.02 13 5 13 C5.33 11.35 5.66 9.7 6 8 C4.02 8 2.04 8 0 8 C0 5.36 0 2.72 0 0 Z " fill="#F34236" transform="translate(73,17)"/>
<path d="M0 0 C2.64 0 5.28 0 8 0 C8 4.29 8 8.58 8 13 C7.01 13 6.02 13 5 13 C5 12.01 5 11.02 5 10 C5.66 10 6.32 10 7 10 C7 9.34 7 8.68 7 8 C4.69 8 2.38 8 0 8 C0 5.36 0 2.72 0 0 Z " fill="#F14539" transform="translate(34,17)"/>
<path d="M0 0 C2.31 0 4.62 0 7 0 C7 4.29 7 8.58 7 13 C6.01 13 5.02 13 4 13 C4 12.01 4 11.02 4 10 C4.66 10 5.32 10 6 10 C6 9.34 6 8.68 6 8 C3.69 8 1.38 8 -1 8 C-0.67 5.36 -0.34 2.72 0 0 Z " fill="#F44A3D" transform="translate(112,17)"/>
<path d="M0 0 C0.66 0 1.32 0 2 0 C2 0.66 2 1.32 2 2 C2.99 2 3.98 2 5 2 C5 3.32 5 4.64 5 6 C3.35 6 1.7 6 0 6 C0 4.02 0 2.04 0 0 Z " fill="#AB1A1A" transform="translate(20,25)"/>
<path d="M0 0 C1.98 0 3.96 0 6 0 C6 1.32 6 2.64 6 4 C4.02 4 2.04 4 0 4 C0 2.68 0 1.36 0 0 Z " fill="#FBCFCB" transform="translate(74,20)"/>
<path d="M0 0 C1.65 0 3.3 0 5 0 C5 2.31 5 4.62 5 7 C4.34 7 3.68 7 3 7 C3 5.68 3 4.36 3 3 C2.01 3 1.02 3 0 3 C0 2.01 0 1.02 0 0 Z " fill="#D32E2E" transform="translate(22,17)"/>
<path d="M0 0 C1.65 0 3.3 0 5 0 C5 1.32 5 2.64 5 4 C3.35 4 1.7 4 0 4 C0 2.68 0 1.36 0 0 Z " fill="#FCE1DF" transform="translate(113,20)"/>
<path d="M0 0 C1.65 0 3.3 0 5 0 C5 1.32 5 2.64 5 4 C3.35 4 1.7 4 0 4 C0 2.68 0 1.36 0 0 Z " fill="#FCE2E0" transform="translate(36,20)"/>
<path d="M0 0 C2.64 0 5.28 0 8 0 C8 1.98 8 3.96 8 6 C7.01 6 6.02 6 5 6 C5 5.01 5 4.02 5 3 C5.66 3 6.32 3 7 3 C7 2.34 7 1.68 7 1 C4.69 1 2.38 1 0 1 C0 0.67 0 0.34 0 0 Z " fill="#EF3F34" transform="translate(111,24)"/>
<path d="M0 0 C2.97 0.495 2.97 0.495 6 1 C6 2.98 6 4.96 6 7 C5.67 5.68 5.34 4.36 5 3 C3.35 3 1.7 3 0 3 C0 2.01 0 1.02 0 0 Z " fill="#D02C2C" transform="translate(59,17)"/>
</svg>
